<svg width="128" height="128" viewBox="0 0 128 128" fill="none" xmlns="http://www.w3.org/2000/svg">
    <g filter="url(#filter0_d)">
        <rect x="14" y="14" width="100" height="100" fill="#B9B9B9"/>
    </g>
    <rect x="24" y="22" width="12" height="12" fill="#DC2727"/>
    <rect x="24" y="22" width="12" height="12" fill="#DC2727"/>
    <rect x="42" y="68" width="12" height="12" fill="#DC2727"/>
    <rect x="42" y="68" width="12" height="12" fill="#DC2727"/>
    <rect x="26" y="90" width="12" height="12" fill="#DC2727"/>
    <rect x="26" y="90" width="12" height="12" fill="#DC2727"/>
    <rect x="40" y="36" width="12" height="12" fill="#DC2727"/>
    <rect x="40" y="36" width="12" height="12" fill="#DC2727"/>
    <rect x="64" y="58" width="12" height="12" fill="#DC2727"/>
    <rect x="64" y="58" width="12" height="12" fill="#DC2727"/>
    <rect x="80" y="90" width="12" height="12" fill="#DC2727"/>
    <rect x="80" y="90" width="12" height="12" fill="#DC2727"/>
    <rect x="88" y="30" width="12" height="12" fill="#DC2727"/>
    <rect x="88" y="30" width="12" height="12" fill="#DC2727"/>
    <defs>
        <filter id="filter0_d" x="9" y="9" width="110" height="110" filterUnits="userSpaceOnUse"
                color-interpolation-filters="sRGB">
            <feFlood flood-opacity="0" result="BackgroundImageFix"/>
            <feColorMatrix in="SourceAlpha" type="matrix" values="0 0 0 0 0 0 0 0 0 0 0 0 0 0 0 0 0 0 127 0"/>
            <feMorphology radius="1" operator="dilate" in="SourceAlpha" result="effect1_dropShadow"/>
            <feOffset/>
            <feGaussianBlur stdDeviation="2"/>
            <feColorMatrix type="matrix" values="0 0 0 0 0 0 0 0 0 0 0 0 0 0 0 0 0 0 0.25 0"/>
            <feBlend mode="normal" in2="BackgroundImageFix" result="effect1_dropShadow"/>
            <feBlend mode="normal" in="SourceGraphic" in2="effect1_dropShadow" result="shape"/>
        </filter>
    </defs>
</svg>
