<svg width="595" height="140" viewBox="0 0 595 140" fill="none" xmlns="http://www.w3.org/2000/svg">
<rect width="595" height="140" fill="white"/>
<g filter="url(#filter0_d)">
<rect x="34" y="26" width="100" height="100" fill="#B9B9B9"/>
</g>
<rect x="44" y="34" width="12" height="12" fill="#DC2727"/>
<rect x="44" y="34" width="12" height="12" fill="#DC2727"/>
<rect x="62" y="80" width="12" height="12" fill="#DC2727"/>
<rect x="62" y="80" width="12" height="12" fill="#DC2727"/>
<rect x="46" y="102" width="12" height="12" fill="#DC2727"/>
<rect x="46" y="102" width="12" height="12" fill="#DC2727"/>
<rect x="60" y="48" width="12" height="12" fill="#DC2727"/>
<rect x="60" y="48" width="12" height="12" fill="#DC2727"/>
<rect x="84" y="70" width="12" height="12" fill="#DC2727"/>
<rect x="84" y="70" width="12" height="12" fill="#DC2727"/>
<rect x="100" y="102" width="12" height="12" fill="#DC2727"/>
<rect x="100" y="102" width="12" height="12" fill="#DC2727"/>
<rect x="108" y="42" width="12" height="12" fill="#DC2727"/>
<rect x="108" y="42" width="12" height="12" fill="#DC2727"/>
<path d="M232.906 76H225.875V41.875H232.906V76ZM247.109 44.4062V50.6406H251.445V55.6094H247.109V68.2656C247.109 69.2031 247.289 69.875 247.648 70.2812C248.008 70.6875 248.695 70.8906 249.711 70.8906C250.461 70.8906 251.125 70.8359 251.703 70.7266V75.8594C250.375 76.2656 249.008 76.4688 247.602 76.4688C242.852 76.4688 240.43 74.0703 240.336 69.2734V55.6094H236.633V50.6406H240.336V44.4062H247.109ZM266.891 76.4688C263.172 76.4688 260.141 75.3281 257.797 73.0469C255.469 70.7656 254.305 67.7266 254.305 63.9297V63.2734C254.305 60.7266 254.797 58.4531 255.781 56.4531C256.766 54.4375 258.156 52.8906 259.953 51.8125C261.766 50.7188 263.828 50.1719 266.141 50.1719C269.609 50.1719 272.336 51.2656 274.32 53.4531C276.32 55.6406 277.32 58.7422 277.32 62.7578V65.5234H261.172C261.391 67.1797 262.047 68.5078 263.141 69.5078C264.25 70.5078 265.648 71.0078 267.336 71.0078C269.945 71.0078 271.984 70.0625 273.453 68.1719L276.781 71.8984C275.766 73.3359 274.391 74.4609 272.656 75.2734C270.922 76.0703 269 76.4688 266.891 76.4688ZM266.117 55.6562C264.773 55.6562 263.68 56.1094 262.836 57.0156C262.008 57.9219 261.477 59.2188 261.242 60.9062H270.664V60.3672C270.633 58.8672 270.227 57.7109 269.445 56.8984C268.664 56.0703 267.555 55.6562 266.117 55.6562ZM287.539 50.6406L287.75 53.4766C289.547 51.2734 291.977 50.1719 295.039 50.1719C298.305 50.1719 300.547 51.4609 301.766 54.0391C303.547 51.4609 306.086 50.1719 309.383 50.1719C312.133 50.1719 314.18 50.9766 315.523 52.5859C316.867 54.1797 317.539 56.5859 317.539 59.8047V76H310.742V59.8281C310.742 58.3906 310.461 57.3438 309.898 56.6875C309.336 56.0156 308.344 55.6797 306.922 55.6797C304.891 55.6797 303.484 56.6484 302.703 58.5859L302.727 76H295.953V59.8516C295.953 58.3828 295.664 57.3203 295.086 56.6641C294.508 56.0078 293.523 55.6797 292.133 55.6797C290.211 55.6797 288.82 56.4766 287.961 58.0703V76H281.188V50.6406H287.539ZM332.398 41.875L341.164 66.625L349.883 41.875H359.117V76H352.062V66.6719L352.766 50.5703L343.555 76H338.727L329.539 50.5938L330.242 66.6719V76H323.211V41.875H332.398ZM363.758 63.0859C363.758 60.5703 364.242 58.3281 365.211 56.3594C366.18 54.3906 367.57 52.8672 369.383 51.7891C371.211 50.7109 373.328 50.1719 375.734 50.1719C379.156 50.1719 381.945 51.2188 384.102 53.3125C386.273 55.4062 387.484 58.25 387.734 61.8438L387.781 63.5781C387.781 67.4688 386.695 70.5938 384.523 72.9531C382.352 75.2969 379.438 76.4688 375.781 76.4688C372.125 76.4688 369.203 75.2969 367.016 72.9531C364.844 70.6094 363.758 67.4219 363.758 63.3906V63.0859ZM370.531 63.5781C370.531 65.9844 370.984 67.8281 371.891 69.1094C372.797 70.375 374.094 71.0078 375.781 71.0078C377.422 71.0078 378.703 70.3828 379.625 69.1328C380.547 67.8672 381.008 65.8516 381.008 63.0859C381.008 60.7266 380.547 58.8984 379.625 57.6016C378.703 56.3047 377.406 55.6562 375.734 55.6562C374.078 55.6562 372.797 56.3047 371.891 57.6016C370.984 58.8828 370.531 60.875 370.531 63.5781ZM390.898 63.1328C390.898 59.1797 391.781 56.0312 393.547 53.6875C395.328 51.3438 397.758 50.1719 400.836 50.1719C403.305 50.1719 405.344 51.0938 406.953 52.9375V40H413.75V76H407.633L407.305 73.3047C405.617 75.4141 403.445 76.4688 400.789 76.4688C397.805 76.4688 395.406 75.2969 393.594 72.9531C391.797 70.5938 390.898 67.3203 390.898 63.1328ZM397.672 63.625C397.672 66 398.086 67.8203 398.914 69.0859C399.742 70.3516 400.945 70.9844 402.523 70.9844C404.617 70.9844 406.094 70.1016 406.953 68.3359V58.3281C406.109 56.5625 404.648 55.6797 402.57 55.6797C399.305 55.6797 397.672 58.3281 397.672 63.625ZM432.734 68.9922C432.734 68.1641 432.32 67.5156 431.492 67.0469C430.68 66.5625 429.367 66.1328 427.555 65.7578C421.523 64.4922 418.508 61.9297 418.508 58.0703C418.508 55.8203 419.438 53.9453 421.297 52.4453C423.172 50.9297 425.617 50.1719 428.633 50.1719C431.852 50.1719 434.422 50.9297 436.344 52.4453C438.281 53.9609 439.25 55.9297 439.25 58.3516H432.477C432.477 57.3828 432.164 56.5859 431.539 55.9609C430.914 55.3203 429.938 55 428.609 55C427.469 55 426.586 55.2578 425.961 55.7734C425.336 56.2891 425.023 56.9453 425.023 57.7422C425.023 58.4922 425.375 59.1016 426.078 59.5703C426.797 60.0234 428 60.4219 429.688 60.7656C431.375 61.0938 432.797 61.4688 433.953 61.8906C437.531 63.2031 439.32 65.4766 439.32 68.7109C439.32 71.0234 438.328 72.8984 436.344 74.3359C434.359 75.7578 431.797 76.4688 428.656 76.4688C426.531 76.4688 424.641 76.0938 422.984 75.3438C421.344 74.5781 420.055 73.5391 419.117 72.2266C418.18 70.8984 417.711 69.4688 417.711 67.9375H424.133C424.195 69.1406 424.641 70.0625 425.469 70.7031C426.297 71.3438 427.406 71.6641 428.797 71.6641C430.094 71.6641 431.07 71.4219 431.727 70.9375C432.398 70.4375 432.734 69.7891 432.734 68.9922ZM478.766 76H455.375V71.3594L466.414 59.5938C467.93 57.9375 469.047 56.4922 469.766 55.2578C470.5 54.0234 470.867 52.8516 470.867 51.7422C470.867 50.2266 470.484 49.0391 469.719 48.1797C468.953 47.3047 467.859 46.8672 466.438 46.8672C464.906 46.8672 463.695 47.3984 462.805 48.4609C461.93 49.5078 461.492 50.8906 461.492 52.6094H454.695C454.695 50.5312 455.188 48.6328 456.172 46.9141C457.172 45.1953 458.578 43.8516 460.391 42.8828C462.203 41.8984 464.258 41.4062 466.555 41.4062C470.07 41.4062 472.797 42.25 474.734 43.9375C476.688 45.625 477.664 48.0078 477.664 51.0859C477.664 52.7734 477.227 54.4922 476.352 56.2422C475.477 57.9922 473.977 60.0312 471.852 62.3594L464.094 70.5391H478.766V76Z" fill="#D90000"/>
<path d="M198.561 105.414H192.751L191.433 109H190.299L195.142 96.2031H196.17L201.013 109H199.888L198.561 105.414ZM193.085 104.491H198.218L195.651 97.5215L193.085 104.491ZM202.234 104.157C202.234 102.681 202.562 101.506 203.219 100.633C203.881 99.7539 204.777 99.3145 205.908 99.3145C207.191 99.3145 208.17 99.8213 208.844 100.835V95.5H209.89V109H208.905L208.861 107.734C208.188 108.695 207.197 109.176 205.891 109.176C204.795 109.176 203.91 108.736 203.236 107.857C202.568 106.973 202.234 105.78 202.234 104.28V104.157ZM203.298 104.342C203.298 105.555 203.541 106.513 204.027 107.216C204.514 107.913 205.199 108.262 206.084 108.262C207.379 108.262 208.299 107.69 208.844 106.548V102.083C208.299 100.847 207.385 100.229 206.102 100.229C205.217 100.229 204.528 100.577 204.036 101.274C203.544 101.966 203.298 102.988 203.298 104.342ZM212.236 104.157C212.236 102.681 212.564 101.506 213.221 100.633C213.883 99.7539 214.779 99.3145 215.91 99.3145C217.193 99.3145 218.172 99.8213 218.846 100.835V95.5H219.892V109H218.907L218.863 107.734C218.189 108.695 217.199 109.176 215.893 109.176C214.797 109.176 213.912 108.736 213.238 107.857C212.57 106.973 212.236 105.78 212.236 104.28V104.157ZM213.3 104.342C213.3 105.555 213.543 106.513 214.029 107.216C214.516 107.913 215.201 108.262 216.086 108.262C217.381 108.262 218.301 107.69 218.846 106.548V102.083C218.301 100.847 217.387 100.229 216.104 100.229C215.219 100.229 214.53 100.577 214.038 101.274C213.546 101.966 213.3 102.988 213.3 104.342ZM230.553 108.288C231.285 108.288 231.897 108.083 232.39 107.673C232.888 107.257 233.157 106.721 233.198 106.064H234.209C234.18 106.645 233.998 107.175 233.664 107.655C233.33 108.13 232.885 108.502 232.328 108.771C231.777 109.041 231.186 109.176 230.553 109.176C229.305 109.176 228.314 108.742 227.582 107.875C226.855 107.008 226.492 105.842 226.492 104.377V104.061C226.492 103.123 226.656 102.294 226.984 101.573C227.312 100.853 227.781 100.296 228.391 99.9033C229.006 99.5107 229.724 99.3145 230.544 99.3145C231.587 99.3145 232.445 99.625 233.119 100.246C233.799 100.867 234.162 101.685 234.209 102.698H233.198C233.151 101.954 232.882 101.354 232.39 100.896C231.903 100.439 231.288 100.211 230.544 100.211C229.595 100.211 228.856 100.554 228.329 101.239C227.808 101.925 227.547 102.886 227.547 104.122V104.43C227.547 105.643 227.808 106.589 228.329 107.269C228.856 107.948 229.598 108.288 230.553 108.288ZM242.436 107.796C241.803 108.716 240.792 109.176 239.403 109.176C238.39 109.176 237.619 108.883 237.092 108.297C236.564 107.705 236.295 106.832 236.283 105.678V99.4902H237.329V105.546C237.329 107.356 238.062 108.262 239.526 108.262C241.05 108.262 242.014 107.632 242.418 106.372V99.4902H243.473V109H242.453L242.436 107.796ZM251.91 106.583C251.91 106.062 251.699 105.643 251.277 105.326C250.861 105.01 250.231 104.764 249.388 104.588C248.544 104.406 247.888 104.201 247.419 103.973C246.956 103.738 246.61 103.454 246.382 103.12C246.159 102.786 246.048 102.382 246.048 101.907C246.048 101.157 246.361 100.539 246.988 100.053C247.615 99.5605 248.418 99.3145 249.396 99.3145C250.457 99.3145 251.307 99.5781 251.945 100.105C252.59 100.627 252.912 101.31 252.912 102.153H251.857C251.857 101.597 251.623 101.134 251.154 100.765C250.691 100.396 250.105 100.211 249.396 100.211C248.705 100.211 248.148 100.366 247.727 100.677C247.311 100.981 247.103 101.38 247.103 101.872C247.103 102.347 247.275 102.716 247.621 102.979C247.973 103.237 248.608 103.475 249.528 103.691C250.454 103.908 251.146 104.14 251.603 104.386C252.065 104.632 252.408 104.928 252.631 105.273C252.854 105.619 252.965 106.038 252.965 106.53C252.965 107.333 252.64 107.975 251.989 108.455C251.345 108.936 250.501 109.176 249.458 109.176C248.351 109.176 247.451 108.909 246.76 108.376C246.074 107.837 245.731 107.157 245.731 106.337H246.786C246.827 106.952 247.085 107.433 247.56 107.778C248.04 108.118 248.673 108.288 249.458 108.288C250.19 108.288 250.782 108.127 251.233 107.805C251.685 107.482 251.91 107.075 251.91 106.583ZM256.973 97.0557V99.4902H258.941V100.352H256.973V106.688C256.973 107.216 257.066 107.608 257.254 107.866C257.447 108.124 257.767 108.253 258.212 108.253C258.388 108.253 258.672 108.224 259.064 108.165L259.108 109.026C258.833 109.126 258.458 109.176 257.983 109.176C257.263 109.176 256.738 108.968 256.41 108.552C256.082 108.13 255.918 107.512 255.918 106.697V100.352H254.169V99.4902H255.918V97.0557H256.973ZM260.365 104.104C260.365 103.19 260.541 102.367 260.893 101.635C261.25 100.902 261.751 100.334 262.396 99.9297C263.046 99.5195 263.781 99.3145 264.602 99.3145C265.867 99.3145 266.893 99.7598 267.678 100.65C268.463 101.535 268.855 102.71 268.855 104.175V104.395C268.855 105.314 268.677 106.144 268.319 106.882C267.968 107.614 267.47 108.18 266.825 108.578C266.181 108.977 265.445 109.176 264.619 109.176C263.359 109.176 262.334 108.733 261.543 107.849C260.758 106.958 260.365 105.78 260.365 104.315V104.104ZM261.42 104.395C261.42 105.531 261.713 106.466 262.299 107.198C262.891 107.925 263.664 108.288 264.619 108.288C265.568 108.288 266.336 107.925 266.922 107.198C267.514 106.466 267.81 105.502 267.81 104.307V104.104C267.81 103.378 267.675 102.713 267.405 102.109C267.136 101.506 266.758 101.04 266.271 100.712C265.785 100.378 265.229 100.211 264.602 100.211C263.664 100.211 262.899 100.58 262.308 101.318C261.716 102.051 261.42 103.012 261.42 104.201V104.395ZM271.993 99.4902L272.028 101.037C272.38 100.463 272.819 100.032 273.347 99.7451C273.874 99.458 274.46 99.3145 275.104 99.3145C276.604 99.3145 277.557 99.9297 277.961 101.16C278.301 100.568 278.755 100.114 279.323 99.7979C279.892 99.4756 280.519 99.3145 281.204 99.3145C283.243 99.3145 284.283 100.428 284.324 102.654V109H283.27V102.733C283.264 101.884 283.079 101.254 282.716 100.844C282.358 100.434 281.772 100.229 280.958 100.229C280.202 100.24 279.563 100.486 279.042 100.967C278.521 101.441 278.23 102.021 278.172 102.707V109H277.117V102.654C277.111 101.84 276.918 101.233 276.537 100.835C276.162 100.431 275.582 100.229 274.797 100.229C274.135 100.229 273.566 100.419 273.092 100.8C272.617 101.175 272.266 101.734 272.037 102.479V109H270.982V99.4902H271.993ZM292.551 109H291.496V99.4902H292.551V109ZM291.312 96.7393C291.312 96.54 291.376 96.373 291.505 96.2383C291.634 96.0977 291.81 96.0273 292.032 96.0273C292.255 96.0273 292.431 96.0977 292.56 96.2383C292.694 96.373 292.762 96.54 292.762 96.7393C292.762 96.9385 292.694 97.1055 292.56 97.2402C292.431 97.375 292.255 97.4424 292.032 97.4424C291.81 97.4424 291.634 97.375 291.505 97.2402C291.376 97.1055 291.312 96.9385 291.312 96.7393ZM297.051 97.0557V99.4902H299.02V100.352H297.051V106.688C297.051 107.216 297.145 107.608 297.332 107.866C297.525 108.124 297.845 108.253 298.29 108.253C298.466 108.253 298.75 108.224 299.143 108.165L299.187 109.026C298.911 109.126 298.536 109.176 298.062 109.176C297.341 109.176 296.816 108.968 296.488 108.552C296.16 108.13 295.996 107.512 295.996 106.697V100.352H294.247V99.4902H295.996V97.0557H297.051ZM304.882 109.176C304.073 109.176 303.341 108.977 302.685 108.578C302.034 108.18 301.527 107.626 301.164 106.917C300.801 106.202 300.619 105.402 300.619 104.518V104.14C300.619 103.226 300.795 102.402 301.146 101.67C301.504 100.938 301.999 100.363 302.632 99.9473C303.265 99.5254 303.95 99.3145 304.688 99.3145C305.843 99.3145 306.757 99.71 307.431 100.501C308.11 101.286 308.45 102.361 308.45 103.727V104.315H301.665V104.518C301.665 105.596 301.973 106.495 302.588 107.216C303.209 107.931 303.988 108.288 304.926 108.288C305.488 108.288 305.983 108.186 306.411 107.98C306.845 107.775 307.237 107.447 307.589 106.996L308.248 107.497C307.475 108.616 306.353 109.176 304.882 109.176ZM304.688 100.211C303.897 100.211 303.229 100.501 302.685 101.081C302.146 101.661 301.817 102.44 301.7 103.419H307.404V103.305C307.375 102.391 307.114 101.646 306.622 101.072C306.13 100.498 305.485 100.211 304.688 100.211ZM311.456 99.4902L311.491 101.037C311.843 100.463 312.282 100.032 312.81 99.7451C313.337 99.458 313.923 99.3145 314.567 99.3145C316.067 99.3145 317.02 99.9297 317.424 101.16C317.764 100.568 318.218 100.114 318.786 99.7979C319.354 99.4756 319.981 99.3145 320.667 99.3145C322.706 99.3145 323.746 100.428 323.787 102.654V109H322.732V102.733C322.727 101.884 322.542 101.254 322.179 100.844C321.821 100.434 321.235 100.229 320.421 100.229C319.665 100.24 319.026 100.486 318.505 100.967C317.983 101.441 317.693 102.021 317.635 102.707V109H316.58V102.654C316.574 101.84 316.381 101.233 316 100.835C315.625 100.431 315.045 100.229 314.26 100.229C313.598 100.229 313.029 100.419 312.555 100.8C312.08 101.175 311.729 101.734 311.5 102.479V109H310.445V99.4902H311.456ZM332.154 106.583C332.154 106.062 331.943 105.643 331.521 105.326C331.105 105.01 330.476 104.764 329.632 104.588C328.788 104.406 328.132 104.201 327.663 103.973C327.2 103.738 326.854 103.454 326.626 103.12C326.403 102.786 326.292 102.382 326.292 101.907C326.292 101.157 326.605 100.539 327.232 100.053C327.859 99.5605 328.662 99.3145 329.641 99.3145C330.701 99.3145 331.551 99.5781 332.189 100.105C332.834 100.627 333.156 101.31 333.156 102.153H332.102C332.102 101.597 331.867 101.134 331.398 100.765C330.936 100.396 330.35 100.211 329.641 100.211C328.949 100.211 328.393 100.366 327.971 100.677C327.555 100.981 327.347 101.38 327.347 101.872C327.347 102.347 327.52 102.716 327.865 102.979C328.217 103.237 328.853 103.475 329.772 103.691C330.698 103.908 331.39 104.14 331.847 104.386C332.31 104.632 332.652 104.928 332.875 105.273C333.098 105.619 333.209 106.038 333.209 106.53C333.209 107.333 332.884 107.975 332.233 108.455C331.589 108.936 330.745 109.176 329.702 109.176C328.595 109.176 327.695 108.909 327.004 108.376C326.318 107.837 325.976 107.157 325.976 106.337H327.03C327.071 106.952 327.329 107.433 327.804 107.778C328.284 108.118 328.917 108.288 329.702 108.288C330.435 108.288 331.026 108.127 331.478 107.805C331.929 107.482 332.154 107.075 332.154 106.583ZM335.433 110.099H334.475L339.818 96.2031H340.768L335.433 110.099ZM350.392 104.342C350.392 105.824 350.063 107.002 349.407 107.875C348.751 108.742 347.869 109.176 346.762 109.176C345.438 109.176 344.436 108.684 343.756 107.699L343.712 109H342.728V95.5H343.773V100.87C344.441 99.833 345.432 99.3145 346.744 99.3145C347.869 99.3145 348.757 99.7451 349.407 100.606C350.063 101.462 350.392 102.654 350.392 104.184V104.342ZM349.337 104.157C349.337 102.903 349.094 101.937 348.607 101.257C348.121 100.571 347.436 100.229 346.551 100.229C345.877 100.229 345.306 100.396 344.837 100.729C344.368 101.058 344.014 101.541 343.773 102.18V106.469C344.301 107.664 345.232 108.262 346.568 108.262C347.436 108.262 348.112 107.919 348.599 107.233C349.091 106.548 349.337 105.522 349.337 104.157ZM353.898 109H352.844V95.5H353.898V109ZM356.184 104.104C356.184 103.19 356.359 102.367 356.711 101.635C357.068 100.902 357.569 100.334 358.214 99.9297C358.864 99.5195 359.6 99.3145 360.42 99.3145C361.686 99.3145 362.711 99.7598 363.496 100.65C364.281 101.535 364.674 102.71 364.674 104.175V104.395C364.674 105.314 364.495 106.144 364.138 106.882C363.786 107.614 363.288 108.18 362.644 108.578C361.999 108.977 361.264 109.176 360.438 109.176C359.178 109.176 358.152 108.733 357.361 107.849C356.576 106.958 356.184 105.78 356.184 104.315V104.104ZM357.238 104.395C357.238 105.531 357.531 106.466 358.117 107.198C358.709 107.925 359.482 108.288 360.438 108.288C361.387 108.288 362.154 107.925 362.74 107.198C363.332 106.466 363.628 105.502 363.628 104.307V104.104C363.628 103.378 363.493 102.713 363.224 102.109C362.954 101.506 362.576 101.04 362.09 100.712C361.604 100.378 361.047 100.211 360.42 100.211C359.482 100.211 358.718 100.58 358.126 101.318C357.534 102.051 357.238 103.012 357.238 104.201V104.395ZM370.369 108.288C371.102 108.288 371.714 108.083 372.206 107.673C372.704 107.257 372.974 106.721 373.015 106.064H374.025C373.996 106.645 373.814 107.175 373.48 107.655C373.146 108.13 372.701 108.502 372.145 108.771C371.594 109.041 371.002 109.176 370.369 109.176C369.121 109.176 368.131 108.742 367.398 107.875C366.672 107.008 366.309 105.842 366.309 104.377V104.061C366.309 103.123 366.473 102.294 366.801 101.573C367.129 100.853 367.598 100.296 368.207 99.9033C368.822 99.5107 369.54 99.3145 370.36 99.3145C371.403 99.3145 372.262 99.625 372.936 100.246C373.615 100.867 373.979 101.685 374.025 102.698H373.015C372.968 101.954 372.698 101.354 372.206 100.896C371.72 100.439 371.104 100.211 370.36 100.211C369.411 100.211 368.673 100.554 368.146 101.239C367.624 101.925 367.363 102.886 367.363 104.122V104.43C367.363 105.643 367.624 106.589 368.146 107.269C368.673 107.948 369.414 108.288 370.369 108.288ZM378.394 104.21L377.189 105.37V109H376.135V95.5H377.189V104.14L378.183 103.067L381.821 99.4902H383.148L379.114 103.498L383.5 109H382.243L378.394 104.21ZM390.654 106.583C390.654 106.062 390.443 105.643 390.021 105.326C389.605 105.01 388.976 104.764 388.132 104.588C387.288 104.406 386.632 104.201 386.163 103.973C385.7 103.738 385.354 103.454 385.126 103.12C384.903 102.786 384.792 102.382 384.792 101.907C384.792 101.157 385.105 100.539 385.732 100.053C386.359 99.5605 387.162 99.3145 388.141 99.3145C389.201 99.3145 390.051 99.5781 390.689 100.105C391.334 100.627 391.656 101.31 391.656 102.153H390.602C390.602 101.597 390.367 101.134 389.898 100.765C389.436 100.396 388.85 100.211 388.141 100.211C387.449 100.211 386.893 100.366 386.471 100.677C386.055 100.981 385.847 101.38 385.847 101.872C385.847 102.347 386.02 102.716 386.365 102.979C386.717 103.237 387.353 103.475 388.272 103.691C389.198 103.908 389.89 104.14 390.347 104.386C390.81 104.632 391.152 104.928 391.375 105.273C391.598 105.619 391.709 106.038 391.709 106.53C391.709 107.333 391.384 107.975 390.733 108.455C390.089 108.936 389.245 109.176 388.202 109.176C387.095 109.176 386.195 108.909 385.504 108.376C384.818 107.837 384.476 107.157 384.476 106.337H385.53C385.571 106.952 385.829 107.433 386.304 107.778C386.784 108.118 387.417 108.288 388.202 108.288C388.935 108.288 389.526 108.127 389.978 107.805C390.429 107.482 390.654 107.075 390.654 106.583ZM400.094 97.0557V99.4902H402.062V100.352H400.094V106.688C400.094 107.216 400.188 107.608 400.375 107.866C400.568 108.124 400.888 108.253 401.333 108.253C401.509 108.253 401.793 108.224 402.186 108.165L402.229 109.026C401.954 109.126 401.579 109.176 401.104 109.176C400.384 109.176 399.859 108.968 399.531 108.552C399.203 108.13 399.039 107.512 399.039 106.697V100.352H397.29V99.4902H399.039V97.0557H400.094ZM403.486 104.104C403.486 103.19 403.662 102.367 404.014 101.635C404.371 100.902 404.872 100.334 405.517 99.9297C406.167 99.5195 406.902 99.3145 407.723 99.3145C408.988 99.3145 410.014 99.7598 410.799 100.65C411.584 101.535 411.977 102.71 411.977 104.175V104.395C411.977 105.314 411.798 106.144 411.44 106.882C411.089 107.614 410.591 108.18 409.946 108.578C409.302 108.977 408.566 109.176 407.74 109.176C406.48 109.176 405.455 108.733 404.664 107.849C403.879 106.958 403.486 105.78 403.486 104.315V104.104ZM404.541 104.395C404.541 105.531 404.834 106.466 405.42 107.198C406.012 107.925 406.785 108.288 407.74 108.288C408.689 108.288 409.457 107.925 410.043 107.198C410.635 106.466 410.931 105.502 410.931 104.307V104.104C410.931 103.378 410.796 102.713 410.526 102.109C410.257 101.506 409.879 101.04 409.393 100.712C408.906 100.378 408.35 100.211 407.723 100.211C406.785 100.211 406.021 100.58 405.429 101.318C404.837 102.051 404.541 103.012 404.541 104.201V104.395ZM421.548 107.488L424.325 99.4902H425.459L421.398 110.617L421.188 111.109C420.666 112.264 419.86 112.841 418.771 112.841C418.519 112.841 418.249 112.8 417.962 112.718L417.953 111.848L418.498 111.9C419.014 111.9 419.43 111.771 419.746 111.514C420.068 111.262 420.341 110.825 420.563 110.204L421.029 108.921L417.443 99.4902H418.595L421.548 107.488ZM426.373 104.104C426.373 103.19 426.549 102.367 426.9 101.635C427.258 100.902 427.759 100.334 428.403 99.9297C429.054 99.5195 429.789 99.3145 430.609 99.3145C431.875 99.3145 432.9 99.7598 433.686 100.65C434.471 101.535 434.863 102.71 434.863 104.175V104.395C434.863 105.314 434.685 106.144 434.327 106.882C433.976 107.614 433.478 108.18 432.833 108.578C432.188 108.977 431.453 109.176 430.627 109.176C429.367 109.176 428.342 108.733 427.551 107.849C426.766 106.958 426.373 105.78 426.373 104.315V104.104ZM427.428 104.395C427.428 105.531 427.721 106.466 428.307 107.198C428.898 107.925 429.672 108.288 430.627 108.288C431.576 108.288 432.344 107.925 432.93 107.198C433.521 106.466 433.817 105.502 433.817 104.307V104.104C433.817 103.378 433.683 102.713 433.413 102.109C433.144 101.506 432.766 101.04 432.279 100.712C431.793 100.378 431.236 100.211 430.609 100.211C429.672 100.211 428.907 100.58 428.315 101.318C427.724 102.051 427.428 103.012 427.428 104.201V104.395ZM443.16 107.796C442.527 108.716 441.517 109.176 440.128 109.176C439.114 109.176 438.344 108.883 437.816 108.297C437.289 107.705 437.02 106.832 437.008 105.678V99.4902H438.054V105.546C438.054 107.356 438.786 108.262 440.251 108.262C441.774 108.262 442.738 107.632 443.143 106.372V99.4902H444.197V109H443.178L443.16 107.796ZM451.334 100.387C451.111 100.346 450.874 100.325 450.622 100.325C449.966 100.325 449.409 100.51 448.952 100.879C448.501 101.242 448.179 101.772 447.985 102.47V109H446.939V99.4902H447.968L447.985 101.002C448.542 99.877 449.436 99.3145 450.666 99.3145C450.959 99.3145 451.19 99.3525 451.36 99.4287L451.334 100.387ZM456.959 104.157C456.959 102.669 457.287 101.491 457.943 100.624C458.605 99.751 459.502 99.3145 460.633 99.3145C461.928 99.3145 462.912 99.8301 463.586 100.861L463.639 99.4902H464.623V108.807C464.623 110.031 464.28 111.001 463.595 111.716C462.909 112.431 461.98 112.788 460.809 112.788C460.146 112.788 459.514 112.639 458.91 112.34C458.312 112.047 457.841 111.654 457.495 111.162L458.084 110.529C458.828 111.443 459.713 111.9 460.738 111.9C461.617 111.9 462.303 111.64 462.795 111.118C463.287 110.603 463.542 109.885 463.56 108.965V107.77C462.886 108.707 461.904 109.176 460.615 109.176C459.514 109.176 458.629 108.736 457.961 107.857C457.293 106.979 456.959 105.792 456.959 104.298V104.157ZM458.022 104.342C458.022 105.555 458.266 106.513 458.752 107.216C459.238 107.913 459.924 108.262 460.809 108.262C462.104 108.262 463.021 107.682 463.56 106.521V102.101C463.313 101.491 462.959 101.028 462.496 100.712C462.033 100.39 461.477 100.229 460.826 100.229C459.941 100.229 459.253 100.577 458.761 101.274C458.269 101.966 458.022 102.988 458.022 104.342ZM473.368 109C473.263 108.701 473.195 108.259 473.166 107.673C472.797 108.153 472.325 108.525 471.751 108.789C471.183 109.047 470.579 109.176 469.94 109.176C469.026 109.176 468.285 108.921 467.717 108.411C467.154 107.901 466.873 107.257 466.873 106.478C466.873 105.552 467.257 104.819 468.024 104.28C468.798 103.741 469.873 103.472 471.25 103.472H473.157V102.391C473.157 101.711 472.946 101.178 472.524 100.791C472.108 100.398 471.499 100.202 470.696 100.202C469.964 100.202 469.357 100.39 468.877 100.765C468.396 101.14 468.156 101.591 468.156 102.118L467.102 102.109C467.102 101.354 467.453 100.7 468.156 100.149C468.859 99.5928 469.724 99.3145 470.749 99.3145C471.81 99.3145 472.645 99.5811 473.254 100.114C473.869 100.642 474.186 101.38 474.203 102.329V106.829C474.203 107.749 474.3 108.438 474.493 108.895V109H473.368ZM470.063 108.244C470.767 108.244 471.394 108.074 471.944 107.734C472.501 107.395 472.905 106.94 473.157 106.372V104.28H471.276C470.228 104.292 469.407 104.485 468.815 104.86C468.224 105.229 467.928 105.739 467.928 106.39C467.928 106.923 468.124 107.365 468.517 107.717C468.915 108.068 469.431 108.244 470.063 108.244ZM477.974 99.4902L478.009 101.037C478.36 100.463 478.8 100.032 479.327 99.7451C479.854 99.458 480.44 99.3145 481.085 99.3145C482.585 99.3145 483.537 99.9297 483.941 101.16C484.281 100.568 484.735 100.114 485.304 99.7979C485.872 99.4756 486.499 99.3145 487.185 99.3145C489.224 99.3145 490.264 100.428 490.305 102.654V109H489.25V102.733C489.244 101.884 489.06 101.254 488.696 100.844C488.339 100.434 487.753 100.229 486.938 100.229C486.183 100.24 485.544 100.486 485.022 100.967C484.501 101.441 484.211 102.021 484.152 102.707V109H483.098V102.654C483.092 101.84 482.898 101.233 482.518 100.835C482.143 100.431 481.562 100.229 480.777 100.229C480.115 100.229 479.547 100.419 479.072 100.8C478.598 101.175 478.246 101.734 478.018 102.479V109H476.963V99.4902H477.974ZM496.659 109.176C495.851 109.176 495.118 108.977 494.462 108.578C493.812 108.18 493.305 107.626 492.941 106.917C492.578 106.202 492.396 105.402 492.396 104.518V104.14C492.396 103.226 492.572 102.402 492.924 101.67C493.281 100.938 493.776 100.363 494.409 99.9473C495.042 99.5254 495.728 99.3145 496.466 99.3145C497.62 99.3145 498.534 99.71 499.208 100.501C499.888 101.286 500.228 102.361 500.228 103.727V104.315H493.442V104.518C493.442 105.596 493.75 106.495 494.365 107.216C494.986 107.931 495.766 108.288 496.703 108.288C497.266 108.288 497.761 108.186 498.188 107.98C498.622 107.775 499.015 107.447 499.366 106.996L500.025 107.497C499.252 108.616 498.13 109.176 496.659 109.176ZM496.466 100.211C495.675 100.211 495.007 100.501 494.462 101.081C493.923 101.661 493.595 102.44 493.478 103.419H499.182V103.305C499.152 102.391 498.892 101.646 498.399 101.072C497.907 100.498 497.263 100.211 496.466 100.211ZM502.179 108.367C502.179 108.162 502.243 107.989 502.372 107.849C502.507 107.702 502.691 107.629 502.926 107.629C503.16 107.629 503.345 107.702 503.479 107.849C503.614 107.989 503.682 108.162 503.682 108.367C503.682 108.572 503.614 108.742 503.479 108.877C503.345 109.006 503.16 109.07 502.926 109.07C502.691 109.07 502.507 109.006 502.372 108.877C502.243 108.742 502.179 108.572 502.179 108.367Z" fill="black"/>
<defs>
<filter id="filter0_d" x="29" y="21" width="110" height="110" filterUnits="userSpaceOnUse" color-interpolation-filters="sRGB">
<feFlood flood-opacity="0" result="BackgroundImageFix"/>
<feColorMatrix in="SourceAlpha" type="matrix" values="0 0 0 0 0 0 0 0 0 0 0 0 0 0 0 0 0 0 127 0"/>
<feMorphology radius="1" operator="dilate" in="SourceAlpha" result="effect1_dropShadow"/>
<feOffset/>
<feGaussianBlur stdDeviation="2"/>
<feColorMatrix type="matrix" values="0 0 0 0 0 0 0 0 0 0 0 0 0 0 0 0 0 0 0.25 0"/>
<feBlend mode="normal" in2="BackgroundImageFix" result="effect1_dropShadow"/>
<feBlend mode="normal" in="SourceGraphic" in2="effect1_dropShadow" result="shape"/>
</filter>
</defs>
</svg>
