<svg width="500" height="128" viewBox="0 0 500 128" fill="none" xmlns="http://www.w3.org/2000/svg">
<rect width="500" height="128" fill="white"/>
<g filter="url(#filter0_d)">
<rect x="14" y="14" width="100" height="100" fill="#B9B9B9"/>
</g>
<rect x="24" y="22" width="12" height="12" fill="#DC2727"/>
<rect x="24" y="22" width="12" height="12" fill="#DC2727"/>
<rect x="42" y="68" width="12" height="12" fill="#DC2727"/>
<rect x="42" y="68" width="12" height="12" fill="#DC2727"/>
<rect x="26" y="90" width="12" height="12" fill="#DC2727"/>
<rect x="26" y="90" width="12" height="12" fill="#DC2727"/>
<rect x="40" y="36" width="12" height="12" fill="#DC2727"/>
<rect x="40" y="36" width="12" height="12" fill="#DC2727"/>
<rect x="64" y="58" width="12" height="12" fill="#DC2727"/>
<rect x="64" y="58" width="12" height="12" fill="#DC2727"/>
<rect x="80" y="90" width="12" height="12" fill="#DC2727"/>
<rect x="80" y="90" width="12" height="12" fill="#DC2727"/>
<rect x="88" y="30" width="12" height="12" fill="#DC2727"/>
<rect x="88" y="30" width="12" height="12" fill="#DC2727"/>
<path d="M150.561 88.4141H144.751L143.433 92H142.299L147.142 79.2031H148.17L153.013 92H151.888L150.561 88.4141ZM145.085 87.4912H150.218L147.651 80.5215L145.085 87.4912ZM154.234 87.1572C154.234 85.6807 154.562 84.5059 155.219 83.6328C155.881 82.7539 156.777 82.3145 157.908 82.3145C159.191 82.3145 160.17 82.8213 160.844 83.835V78.5H161.89V92H160.905L160.861 90.7344C160.188 91.6953 159.197 92.1758 157.891 92.1758C156.795 92.1758 155.91 91.7363 155.236 90.8574C154.568 89.9727 154.234 88.7803 154.234 87.2803V87.1572ZM155.298 87.3418C155.298 88.5547 155.541 89.5127 156.027 90.2158C156.514 90.9131 157.199 91.2617 158.084 91.2617C159.379 91.2617 160.299 90.6904 160.844 89.5479V85.083C160.299 83.8467 159.385 83.2285 158.102 83.2285C157.217 83.2285 156.528 83.5771 156.036 84.2744C155.544 84.9658 155.298 85.9883 155.298 87.3418ZM164.236 87.1572C164.236 85.6807 164.564 84.5059 165.221 83.6328C165.883 82.7539 166.779 82.3145 167.91 82.3145C169.193 82.3145 170.172 82.8213 170.846 83.835V78.5H171.892V92H170.907L170.863 90.7344C170.189 91.6953 169.199 92.1758 167.893 92.1758C166.797 92.1758 165.912 91.7363 165.238 90.8574C164.57 89.9727 164.236 88.7803 164.236 87.2803V87.1572ZM165.3 87.3418C165.3 88.5547 165.543 89.5127 166.029 90.2158C166.516 90.9131 167.201 91.2617 168.086 91.2617C169.381 91.2617 170.301 90.6904 170.846 89.5479V85.083C170.301 83.8467 169.387 83.2285 168.104 83.2285C167.219 83.2285 166.53 83.5771 166.038 84.2744C165.546 84.9658 165.3 85.9883 165.3 87.3418ZM182.553 91.2881C183.285 91.2881 183.897 91.083 184.39 90.6729C184.888 90.2568 185.157 89.7207 185.198 89.0645H186.209C186.18 89.6445 185.998 90.1748 185.664 90.6553C185.33 91.1299 184.885 91.502 184.328 91.7715C183.777 92.041 183.186 92.1758 182.553 92.1758C181.305 92.1758 180.314 91.7422 179.582 90.875C178.855 90.0078 178.492 88.8418 178.492 87.377V87.0605C178.492 86.123 178.656 85.2939 178.984 84.5732C179.312 83.8525 179.781 83.2959 180.391 82.9033C181.006 82.5107 181.724 82.3145 182.544 82.3145C183.587 82.3145 184.445 82.625 185.119 83.2461C185.799 83.8672 186.162 84.6846 186.209 85.6982H185.198C185.151 84.9541 184.882 84.3535 184.39 83.8965C183.903 83.4395 183.288 83.2109 182.544 83.2109C181.595 83.2109 180.856 83.5537 180.329 84.2393C179.808 84.9248 179.547 85.8857 179.547 87.1221V87.4297C179.547 88.6426 179.808 89.5889 180.329 90.2686C180.856 90.9482 181.598 91.2881 182.553 91.2881ZM194.436 90.7959C193.803 91.7158 192.792 92.1758 191.403 92.1758C190.39 92.1758 189.619 91.8828 189.092 91.2969C188.564 90.7051 188.295 89.832 188.283 88.6777V82.4902H189.329V88.5459C189.329 90.3564 190.062 91.2617 191.526 91.2617C193.05 91.2617 194.014 90.6318 194.418 89.3721V82.4902H195.473V92H194.453L194.436 90.7959ZM203.91 89.583C203.91 89.0615 203.699 88.6426 203.277 88.3262C202.861 88.0098 202.231 87.7637 201.388 87.5879C200.544 87.4062 199.888 87.2012 199.419 86.9727C198.956 86.7383 198.61 86.4541 198.382 86.1201C198.159 85.7861 198.048 85.3818 198.048 84.9072C198.048 84.1572 198.361 83.5391 198.988 83.0527C199.615 82.5605 200.418 82.3145 201.396 82.3145C202.457 82.3145 203.307 82.5781 203.945 83.1055C204.59 83.627 204.912 84.3096 204.912 85.1533H203.857C203.857 84.5967 203.623 84.1338 203.154 83.7646C202.691 83.3955 202.105 83.2109 201.396 83.2109C200.705 83.2109 200.148 83.3662 199.727 83.6768C199.311 83.9814 199.103 84.3799 199.103 84.8721C199.103 85.3467 199.275 85.7158 199.621 85.9795C199.973 86.2373 200.608 86.4746 201.528 86.6914C202.454 86.9082 203.146 87.1396 203.603 87.3857C204.065 87.6318 204.408 87.9277 204.631 88.2734C204.854 88.6191 204.965 89.0381 204.965 89.5303C204.965 90.333 204.64 90.9746 203.989 91.4551C203.345 91.9355 202.501 92.1758 201.458 92.1758C200.351 92.1758 199.451 91.9092 198.76 91.376C198.074 90.8369 197.731 90.1572 197.731 89.3369H198.786C198.827 89.9521 199.085 90.4326 199.56 90.7783C200.04 91.1182 200.673 91.2881 201.458 91.2881C202.19 91.2881 202.782 91.127 203.233 90.8047C203.685 90.4824 203.91 90.0752 203.91 89.583ZM208.973 80.0557V82.4902H210.941V83.3516H208.973V89.6885C208.973 90.2158 209.066 90.6084 209.254 90.8662C209.447 91.124 209.767 91.2529 210.212 91.2529C210.388 91.2529 210.672 91.2236 211.064 91.165L211.108 92.0264C210.833 92.126 210.458 92.1758 209.983 92.1758C209.263 92.1758 208.738 91.9678 208.41 91.5518C208.082 91.1299 207.918 90.5117 207.918 89.6973V83.3516H206.169V82.4902H207.918V80.0557H208.973ZM212.365 87.1045C212.365 86.1904 212.541 85.3672 212.893 84.6348C213.25 83.9023 213.751 83.334 214.396 82.9297C215.046 82.5195 215.781 82.3145 216.602 82.3145C217.867 82.3145 218.893 82.7598 219.678 83.6504C220.463 84.5352 220.855 85.71 220.855 87.1748V87.3945C220.855 88.3145 220.677 89.1436 220.319 89.8818C219.968 90.6143 219.47 91.1797 218.825 91.5781C218.181 91.9766 217.445 92.1758 216.619 92.1758C215.359 92.1758 214.334 91.7334 213.543 90.8486C212.758 89.958 212.365 88.7803 212.365 87.3154V87.1045ZM213.42 87.3945C213.42 88.5312 213.713 89.4658 214.299 90.1982C214.891 90.9248 215.664 91.2881 216.619 91.2881C217.568 91.2881 218.336 90.9248 218.922 90.1982C219.514 89.4658 219.81 88.502 219.81 87.3066V87.1045C219.81 86.3779 219.675 85.7129 219.405 85.1094C219.136 84.5059 218.758 84.04 218.271 83.7119C217.785 83.3779 217.229 83.2109 216.602 83.2109C215.664 83.2109 214.899 83.5801 214.308 84.3184C213.716 85.0508 213.42 86.0117 213.42 87.2012V87.3945ZM223.993 82.4902L224.028 84.0371C224.38 83.4629 224.819 83.0322 225.347 82.7451C225.874 82.458 226.46 82.3145 227.104 82.3145C228.604 82.3145 229.557 82.9297 229.961 84.1602C230.301 83.5684 230.755 83.1143 231.323 82.7979C231.892 82.4756 232.519 82.3145 233.204 82.3145C235.243 82.3145 236.283 83.4277 236.324 85.6543V92H235.27V85.7334C235.264 84.8838 235.079 84.2539 234.716 83.8438C234.358 83.4336 233.772 83.2285 232.958 83.2285C232.202 83.2402 231.563 83.4863 231.042 83.9668C230.521 84.4414 230.23 85.0215 230.172 85.707V92H229.117V85.6543C229.111 84.8398 228.918 84.2334 228.537 83.835C228.162 83.4307 227.582 83.2285 226.797 83.2285C226.135 83.2285 225.566 83.4189 225.092 83.7998C224.617 84.1748 224.266 84.7344 224.037 85.4785V92H222.982V82.4902H223.993ZM244.551 92H243.496V82.4902H244.551V92ZM243.312 79.7393C243.312 79.54 243.376 79.373 243.505 79.2383C243.634 79.0977 243.81 79.0273 244.032 79.0273C244.255 79.0273 244.431 79.0977 244.56 79.2383C244.694 79.373 244.762 79.54 244.762 79.7393C244.762 79.9385 244.694 80.1055 244.56 80.2402C244.431 80.375 244.255 80.4424 244.032 80.4424C243.81 80.4424 243.634 80.375 243.505 80.2402C243.376 80.1055 243.312 79.9385 243.312 79.7393ZM249.051 80.0557V82.4902H251.02V83.3516H249.051V89.6885C249.051 90.2158 249.145 90.6084 249.332 90.8662C249.525 91.124 249.845 91.2529 250.29 91.2529C250.466 91.2529 250.75 91.2236 251.143 91.165L251.187 92.0264C250.911 92.126 250.536 92.1758 250.062 92.1758C249.341 92.1758 248.816 91.9678 248.488 91.5518C248.16 91.1299 247.996 90.5117 247.996 89.6973V83.3516H246.247V82.4902H247.996V80.0557H249.051ZM256.882 92.1758C256.073 92.1758 255.341 91.9766 254.685 91.5781C254.034 91.1797 253.527 90.626 253.164 89.917C252.801 89.2021 252.619 88.4023 252.619 87.5176V87.1396C252.619 86.2256 252.795 85.4023 253.146 84.6699C253.504 83.9375 253.999 83.3633 254.632 82.9473C255.265 82.5254 255.95 82.3145 256.688 82.3145C257.843 82.3145 258.757 82.71 259.431 83.501C260.11 84.2861 260.45 85.3613 260.45 86.7266V87.3154H253.665V87.5176C253.665 88.5957 253.973 89.4951 254.588 90.2158C255.209 90.9307 255.988 91.2881 256.926 91.2881C257.488 91.2881 257.983 91.1855 258.411 90.9805C258.845 90.7754 259.237 90.4473 259.589 89.9961L260.248 90.4971C259.475 91.6162 258.353 92.1758 256.882 92.1758ZM256.688 83.2109C255.897 83.2109 255.229 83.501 254.685 84.0811C254.146 84.6611 253.817 85.4404 253.7 86.4189H259.404V86.3047C259.375 85.3906 259.114 84.6465 258.622 84.0723C258.13 83.498 257.485 83.2109 256.688 83.2109ZM263.456 82.4902L263.491 84.0371C263.843 83.4629 264.282 83.0322 264.81 82.7451C265.337 82.458 265.923 82.3145 266.567 82.3145C268.067 82.3145 269.02 82.9297 269.424 84.1602C269.764 83.5684 270.218 83.1143 270.786 82.7979C271.354 82.4756 271.981 82.3145 272.667 82.3145C274.706 82.3145 275.746 83.4277 275.787 85.6543V92H274.732V85.7334C274.727 84.8838 274.542 84.2539 274.179 83.8438C273.821 83.4336 273.235 83.2285 272.421 83.2285C271.665 83.2402 271.026 83.4863 270.505 83.9668C269.983 84.4414 269.693 85.0215 269.635 85.707V92H268.58V85.6543C268.574 84.8398 268.381 84.2334 268 83.835C267.625 83.4307 267.045 83.2285 266.26 83.2285C265.598 83.2285 265.029 83.4189 264.555 83.7998C264.08 84.1748 263.729 84.7344 263.5 85.4785V92H262.445V82.4902H263.456ZM284.154 89.583C284.154 89.0615 283.943 88.6426 283.521 88.3262C283.105 88.0098 282.476 87.7637 281.632 87.5879C280.788 87.4062 280.132 87.2012 279.663 86.9727C279.2 86.7383 278.854 86.4541 278.626 86.1201C278.403 85.7861 278.292 85.3818 278.292 84.9072C278.292 84.1572 278.605 83.5391 279.232 83.0527C279.859 82.5605 280.662 82.3145 281.641 82.3145C282.701 82.3145 283.551 82.5781 284.189 83.1055C284.834 83.627 285.156 84.3096 285.156 85.1533H284.102C284.102 84.5967 283.867 84.1338 283.398 83.7646C282.936 83.3955 282.35 83.2109 281.641 83.2109C280.949 83.2109 280.393 83.3662 279.971 83.6768C279.555 83.9814 279.347 84.3799 279.347 84.8721C279.347 85.3467 279.52 85.7158 279.865 85.9795C280.217 86.2373 280.853 86.4746 281.772 86.6914C282.698 86.9082 283.39 87.1396 283.847 87.3857C284.31 87.6318 284.652 87.9277 284.875 88.2734C285.098 88.6191 285.209 89.0381 285.209 89.5303C285.209 90.333 284.884 90.9746 284.233 91.4551C283.589 91.9355 282.745 92.1758 281.702 92.1758C280.595 92.1758 279.695 91.9092 279.004 91.376C278.318 90.8369 277.976 90.1572 277.976 89.3369H279.03C279.071 89.9521 279.329 90.4326 279.804 90.7783C280.284 91.1182 280.917 91.2881 281.702 91.2881C282.435 91.2881 283.026 91.127 283.478 90.8047C283.929 90.4824 284.154 90.0752 284.154 89.583ZM287.433 93.0986H286.475L291.818 79.2031H292.768L287.433 93.0986ZM302.392 87.3418C302.392 88.8242 302.063 90.002 301.407 90.875C300.751 91.7422 299.869 92.1758 298.762 92.1758C297.438 92.1758 296.436 91.6836 295.756 90.6992L295.712 92H294.728V78.5H295.773V83.8701C296.441 82.833 297.432 82.3145 298.744 82.3145C299.869 82.3145 300.757 82.7451 301.407 83.6064C302.063 84.4619 302.392 85.6543 302.392 87.1836V87.3418ZM301.337 87.1572C301.337 85.9033 301.094 84.9365 300.607 84.2568C300.121 83.5713 299.436 83.2285 298.551 83.2285C297.877 83.2285 297.306 83.3955 296.837 83.7295C296.368 84.0576 296.014 84.541 295.773 85.1797V89.4688C296.301 90.6641 297.232 91.2617 298.568 91.2617C299.436 91.2617 300.112 90.9189 300.599 90.2334C301.091 89.5479 301.337 88.5225 301.337 87.1572ZM305.898 92H304.844V78.5H305.898V92ZM308.184 87.1045C308.184 86.1904 308.359 85.3672 308.711 84.6348C309.068 83.9023 309.569 83.334 310.214 82.9297C310.864 82.5195 311.6 82.3145 312.42 82.3145C313.686 82.3145 314.711 82.7598 315.496 83.6504C316.281 84.5352 316.674 85.71 316.674 87.1748V87.3945C316.674 88.3145 316.495 89.1436 316.138 89.8818C315.786 90.6143 315.288 91.1797 314.644 91.5781C313.999 91.9766 313.264 92.1758 312.438 92.1758C311.178 92.1758 310.152 91.7334 309.361 90.8486C308.576 89.958 308.184 88.7803 308.184 87.3154V87.1045ZM309.238 87.3945C309.238 88.5312 309.531 89.4658 310.117 90.1982C310.709 90.9248 311.482 91.2881 312.438 91.2881C313.387 91.2881 314.154 90.9248 314.74 90.1982C315.332 89.4658 315.628 88.502 315.628 87.3066V87.1045C315.628 86.3779 315.493 85.7129 315.224 85.1094C314.954 84.5059 314.576 84.04 314.09 83.7119C313.604 83.3779 313.047 83.2109 312.42 83.2109C311.482 83.2109 310.718 83.5801 310.126 84.3184C309.534 85.0508 309.238 86.0117 309.238 87.2012V87.3945ZM322.369 91.2881C323.102 91.2881 323.714 91.083 324.206 90.6729C324.704 90.2568 324.974 89.7207 325.015 89.0645H326.025C325.996 89.6445 325.814 90.1748 325.48 90.6553C325.146 91.1299 324.701 91.502 324.145 91.7715C323.594 92.041 323.002 92.1758 322.369 92.1758C321.121 92.1758 320.131 91.7422 319.398 90.875C318.672 90.0078 318.309 88.8418 318.309 87.377V87.0605C318.309 86.123 318.473 85.2939 318.801 84.5732C319.129 83.8525 319.598 83.2959 320.207 82.9033C320.822 82.5107 321.54 82.3145 322.36 82.3145C323.403 82.3145 324.262 82.625 324.936 83.2461C325.615 83.8672 325.979 84.6846 326.025 85.6982H325.015C324.968 84.9541 324.698 84.3535 324.206 83.8965C323.72 83.4395 323.104 83.2109 322.36 83.2109C321.411 83.2109 320.673 83.5537 320.146 84.2393C319.624 84.9248 319.363 85.8857 319.363 87.1221V87.4297C319.363 88.6426 319.624 89.5889 320.146 90.2686C320.673 90.9482 321.414 91.2881 322.369 91.2881ZM330.394 87.21L329.189 88.3701V92H328.135V78.5H329.189V87.1396L330.183 86.0674L333.821 82.4902H335.148L331.114 86.498L335.5 92H334.243L330.394 87.21ZM342.654 89.583C342.654 89.0615 342.443 88.6426 342.021 88.3262C341.605 88.0098 340.976 87.7637 340.132 87.5879C339.288 87.4062 338.632 87.2012 338.163 86.9727C337.7 86.7383 337.354 86.4541 337.126 86.1201C336.903 85.7861 336.792 85.3818 336.792 84.9072C336.792 84.1572 337.105 83.5391 337.732 83.0527C338.359 82.5605 339.162 82.3145 340.141 82.3145C341.201 82.3145 342.051 82.5781 342.689 83.1055C343.334 83.627 343.656 84.3096 343.656 85.1533H342.602C342.602 84.5967 342.367 84.1338 341.898 83.7646C341.436 83.3955 340.85 83.2109 340.141 83.2109C339.449 83.2109 338.893 83.3662 338.471 83.6768C338.055 83.9814 337.847 84.3799 337.847 84.8721C337.847 85.3467 338.02 85.7158 338.365 85.9795C338.717 86.2373 339.353 86.4746 340.272 86.6914C341.198 86.9082 341.89 87.1396 342.347 87.3857C342.81 87.6318 343.152 87.9277 343.375 88.2734C343.598 88.6191 343.709 89.0381 343.709 89.5303C343.709 90.333 343.384 90.9746 342.733 91.4551C342.089 91.9355 341.245 92.1758 340.202 92.1758C339.095 92.1758 338.195 91.9092 337.504 91.376C336.818 90.8369 336.476 90.1572 336.476 89.3369H337.53C337.571 89.9521 337.829 90.4326 338.304 90.7783C338.784 91.1182 339.417 91.2881 340.202 91.2881C340.935 91.2881 341.526 91.127 341.978 90.8047C342.429 90.4824 342.654 90.0752 342.654 89.583ZM352.094 80.0557V82.4902H354.062V83.3516H352.094V89.6885C352.094 90.2158 352.188 90.6084 352.375 90.8662C352.568 91.124 352.888 91.2529 353.333 91.2529C353.509 91.2529 353.793 91.2236 354.186 91.165L354.229 92.0264C353.954 92.126 353.579 92.1758 353.104 92.1758C352.384 92.1758 351.859 91.9678 351.531 91.5518C351.203 91.1299 351.039 90.5117 351.039 89.6973V83.3516H349.29V82.4902H351.039V80.0557H352.094ZM355.486 87.1045C355.486 86.1904 355.662 85.3672 356.014 84.6348C356.371 83.9023 356.872 83.334 357.517 82.9297C358.167 82.5195 358.902 82.3145 359.723 82.3145C360.988 82.3145 362.014 82.7598 362.799 83.6504C363.584 84.5352 363.977 85.71 363.977 87.1748V87.3945C363.977 88.3145 363.798 89.1436 363.44 89.8818C363.089 90.6143 362.591 91.1797 361.946 91.5781C361.302 91.9766 360.566 92.1758 359.74 92.1758C358.48 92.1758 357.455 91.7334 356.664 90.8486C355.879 89.958 355.486 88.7803 355.486 87.3154V87.1045ZM356.541 87.3945C356.541 88.5312 356.834 89.4658 357.42 90.1982C358.012 90.9248 358.785 91.2881 359.74 91.2881C360.689 91.2881 361.457 90.9248 362.043 90.1982C362.635 89.4658 362.931 88.502 362.931 87.3066V87.1045C362.931 86.3779 362.796 85.7129 362.526 85.1094C362.257 84.5059 361.879 84.04 361.393 83.7119C360.906 83.3779 360.35 83.2109 359.723 83.2109C358.785 83.2109 358.021 83.5801 357.429 84.3184C356.837 85.0508 356.541 86.0117 356.541 87.2012V87.3945ZM373.548 90.4883L376.325 82.4902H377.459L373.398 93.6172L373.188 94.1094C372.666 95.2637 371.86 95.8408 370.771 95.8408C370.519 95.8408 370.249 95.7998 369.962 95.7178L369.953 94.8477L370.498 94.9004C371.014 94.9004 371.43 94.7715 371.746 94.5137C372.068 94.2617 372.341 93.8252 372.563 93.2041L373.029 91.9209L369.443 82.4902H370.595L373.548 90.4883ZM378.373 87.1045C378.373 86.1904 378.549 85.3672 378.9 84.6348C379.258 83.9023 379.759 83.334 380.403 82.9297C381.054 82.5195 381.789 82.3145 382.609 82.3145C383.875 82.3145 384.9 82.7598 385.686 83.6504C386.471 84.5352 386.863 85.71 386.863 87.1748V87.3945C386.863 88.3145 386.685 89.1436 386.327 89.8818C385.976 90.6143 385.478 91.1797 384.833 91.5781C384.188 91.9766 383.453 92.1758 382.627 92.1758C381.367 92.1758 380.342 91.7334 379.551 90.8486C378.766 89.958 378.373 88.7803 378.373 87.3154V87.1045ZM379.428 87.3945C379.428 88.5312 379.721 89.4658 380.307 90.1982C380.898 90.9248 381.672 91.2881 382.627 91.2881C383.576 91.2881 384.344 90.9248 384.93 90.1982C385.521 89.4658 385.817 88.502 385.817 87.3066V87.1045C385.817 86.3779 385.683 85.7129 385.413 85.1094C385.144 84.5059 384.766 84.04 384.279 83.7119C383.793 83.3779 383.236 83.2109 382.609 83.2109C381.672 83.2109 380.907 83.5801 380.315 84.3184C379.724 85.0508 379.428 86.0117 379.428 87.2012V87.3945ZM395.16 90.7959C394.527 91.7158 393.517 92.1758 392.128 92.1758C391.114 92.1758 390.344 91.8828 389.816 91.2969C389.289 90.7051 389.02 89.832 389.008 88.6777V82.4902H390.054V88.5459C390.054 90.3564 390.786 91.2617 392.251 91.2617C393.774 91.2617 394.738 90.6318 395.143 89.3721V82.4902H396.197V92H395.178L395.16 90.7959ZM403.334 83.3867C403.111 83.3457 402.874 83.3252 402.622 83.3252C401.966 83.3252 401.409 83.5098 400.952 83.8789C400.501 84.2422 400.179 84.7725 399.985 85.4697V92H398.939V82.4902H399.968L399.985 84.002C400.542 82.877 401.436 82.3145 402.666 82.3145C402.959 82.3145 403.19 82.3525 403.36 82.4287L403.334 83.3867ZM408.959 87.1572C408.959 85.6689 409.287 84.4912 409.943 83.624C410.605 82.751 411.502 82.3145 412.633 82.3145C413.928 82.3145 414.912 82.8301 415.586 83.8613L415.639 82.4902H416.623V91.8066C416.623 93.0312 416.28 94.001 415.595 94.7158C414.909 95.4307 413.98 95.7881 412.809 95.7881C412.146 95.7881 411.514 95.6387 410.91 95.3398C410.312 95.0469 409.841 94.6543 409.495 94.1621L410.084 93.5293C410.828 94.4434 411.713 94.9004 412.738 94.9004C413.617 94.9004 414.303 94.6396 414.795 94.1182C415.287 93.6025 415.542 92.8848 415.56 91.9648V90.7695C414.886 91.707 413.904 92.1758 412.615 92.1758C411.514 92.1758 410.629 91.7363 409.961 90.8574C409.293 89.9785 408.959 88.792 408.959 87.2979V87.1572ZM410.022 87.3418C410.022 88.5547 410.266 89.5127 410.752 90.2158C411.238 90.9131 411.924 91.2617 412.809 91.2617C414.104 91.2617 415.021 90.6816 415.56 89.5215V85.1006C415.313 84.4912 414.959 84.0283 414.496 83.7119C414.033 83.3896 413.477 83.2285 412.826 83.2285C411.941 83.2285 411.253 83.5771 410.761 84.2744C410.269 84.9658 410.022 85.9883 410.022 87.3418ZM425.368 92C425.263 91.7012 425.195 91.2588 425.166 90.6729C424.797 91.1533 424.325 91.5254 423.751 91.7891C423.183 92.0469 422.579 92.1758 421.94 92.1758C421.026 92.1758 420.285 91.9209 419.717 91.4111C419.154 90.9014 418.873 90.2568 418.873 89.4775C418.873 88.5518 419.257 87.8193 420.024 87.2803C420.798 86.7412 421.873 86.4717 423.25 86.4717H425.157V85.3906C425.157 84.7109 424.946 84.1777 424.524 83.791C424.108 83.3984 423.499 83.2021 422.696 83.2021C421.964 83.2021 421.357 83.3896 420.877 83.7646C420.396 84.1396 420.156 84.5908 420.156 85.1182L419.102 85.1094C419.102 84.3535 419.453 83.7002 420.156 83.1494C420.859 82.5928 421.724 82.3145 422.749 82.3145C423.81 82.3145 424.645 82.5811 425.254 83.1143C425.869 83.6416 426.186 84.3799 426.203 85.3291V89.8291C426.203 90.749 426.3 91.4375 426.493 91.8945V92H425.368ZM422.063 91.2441C422.767 91.2441 423.394 91.0742 423.944 90.7344C424.501 90.3945 424.905 89.9404 425.157 89.3721V87.2803H423.276C422.228 87.292 421.407 87.4854 420.815 87.8604C420.224 88.2295 419.928 88.7393 419.928 89.3896C419.928 89.9229 420.124 90.3652 420.517 90.7168C420.915 91.0684 421.431 91.2441 422.063 91.2441ZM429.974 82.4902L430.009 84.0371C430.36 83.4629 430.8 83.0322 431.327 82.7451C431.854 82.458 432.44 82.3145 433.085 82.3145C434.585 82.3145 435.537 82.9297 435.941 84.1602C436.281 83.5684 436.735 83.1143 437.304 82.7979C437.872 82.4756 438.499 82.3145 439.185 82.3145C441.224 82.3145 442.264 83.4277 442.305 85.6543V92H441.25V85.7334C441.244 84.8838 441.06 84.2539 440.696 83.8438C440.339 83.4336 439.753 83.2285 438.938 83.2285C438.183 83.2402 437.544 83.4863 437.022 83.9668C436.501 84.4414 436.211 85.0215 436.152 85.707V92H435.098V85.6543C435.092 84.8398 434.898 84.2334 434.518 83.835C434.143 83.4307 433.562 83.2285 432.777 83.2285C432.115 83.2285 431.547 83.4189 431.072 83.7998C430.598 84.1748 430.246 84.7344 430.018 85.4785V92H428.963V82.4902H429.974ZM448.659 92.1758C447.851 92.1758 447.118 91.9766 446.462 91.5781C445.812 91.1797 445.305 90.626 444.941 89.917C444.578 89.2021 444.396 88.4023 444.396 87.5176V87.1396C444.396 86.2256 444.572 85.4023 444.924 84.6699C445.281 83.9375 445.776 83.3633 446.409 82.9473C447.042 82.5254 447.728 82.3145 448.466 82.3145C449.62 82.3145 450.534 82.71 451.208 83.501C451.888 84.2861 452.228 85.3613 452.228 86.7266V87.3154H445.442V87.5176C445.442 88.5957 445.75 89.4951 446.365 90.2158C446.986 90.9307 447.766 91.2881 448.703 91.2881C449.266 91.2881 449.761 91.1855 450.188 90.9805C450.622 90.7754 451.015 90.4473 451.366 89.9961L452.025 90.4971C451.252 91.6162 450.13 92.1758 448.659 92.1758ZM448.466 83.2109C447.675 83.2109 447.007 83.501 446.462 84.0811C445.923 84.6611 445.595 85.4404 445.478 86.4189H451.182V86.3047C451.152 85.3906 450.892 84.6465 450.399 84.0723C449.907 83.498 449.263 83.2109 448.466 83.2109ZM454.179 91.3672C454.179 91.1621 454.243 90.9893 454.372 90.8486C454.507 90.7021 454.691 90.6289 454.926 90.6289C455.16 90.6289 455.345 90.7021 455.479 90.8486C455.614 90.9893 455.682 91.1621 455.682 91.3672C455.682 91.5723 455.614 91.7422 455.479 91.877C455.345 92.0059 455.16 92.0703 454.926 92.0703C454.691 92.0703 454.507 92.0059 454.372 91.877C454.243 91.7422 454.179 91.5723 454.179 91.3672Z" fill="black"/>
<path d="M184.906 62H177.875V27.875H184.906V62ZM199.109 30.4062V36.6406H203.445V41.6094H199.109V54.2656C199.109 55.2031 199.289 55.875 199.648 56.2812C200.008 56.6875 200.695 56.8906 201.711 56.8906C202.461 56.8906 203.125 56.8359 203.703 56.7266V61.8594C202.375 62.2656 201.008 62.4688 199.602 62.4688C194.852 62.4688 192.43 60.0703 192.336 55.2734V41.6094H188.633V36.6406H192.336V30.4062H199.109ZM218.891 62.4688C215.172 62.4688 212.141 61.3281 209.797 59.0469C207.469 56.7656 206.305 53.7266 206.305 49.9297V49.2734C206.305 46.7266 206.797 44.4531 207.781 42.4531C208.766 40.4375 210.156 38.8906 211.953 37.8125C213.766 36.7188 215.828 36.1719 218.141 36.1719C221.609 36.1719 224.336 37.2656 226.32 39.4531C228.32 41.6406 229.32 44.7422 229.32 48.7578V51.5234H213.172C213.391 53.1797 214.047 54.5078 215.141 55.5078C216.25 56.5078 217.648 57.0078 219.336 57.0078C221.945 57.0078 223.984 56.0625 225.453 54.1719L228.781 57.8984C227.766 59.3359 226.391 60.4609 224.656 61.2734C222.922 62.0703 221 62.4688 218.891 62.4688ZM218.117 41.6562C216.773 41.6562 215.68 42.1094 214.836 43.0156C214.008 43.9219 213.477 45.2188 213.242 46.9062H222.664V46.3672C222.633 44.8672 222.227 43.7109 221.445 42.8984C220.664 42.0703 219.555 41.6562 218.117 41.6562ZM239.539 36.6406L239.75 39.4766C241.547 37.2734 243.977 36.1719 247.039 36.1719C250.305 36.1719 252.547 37.4609 253.766 40.0391C255.547 37.4609 258.086 36.1719 261.383 36.1719C264.133 36.1719 266.18 36.9766 267.523 38.5859C268.867 40.1797 269.539 42.5859 269.539 45.8047V62H262.742V45.8281C262.742 44.3906 262.461 43.3438 261.898 42.6875C261.336 42.0156 260.344 41.6797 258.922 41.6797C256.891 41.6797 255.484 42.6484 254.703 44.5859L254.727 62H247.953V45.8516C247.953 44.3828 247.664 43.3203 247.086 42.6641C246.508 42.0078 245.523 41.6797 244.133 41.6797C242.211 41.6797 240.82 42.4766 239.961 44.0703V62H233.188V36.6406H239.539ZM284.398 27.875L293.164 52.625L301.883 27.875H311.117V62H304.062V52.6719L304.766 36.5703L295.555 62H290.727L281.539 36.5938L282.242 52.6719V62H275.211V27.875H284.398ZM315.758 49.0859C315.758 46.5703 316.242 44.3281 317.211 42.3594C318.18 40.3906 319.57 38.8672 321.383 37.7891C323.211 36.7109 325.328 36.1719 327.734 36.1719C331.156 36.1719 333.945 37.2188 336.102 39.3125C338.273 41.4062 339.484 44.25 339.734 47.8438L339.781 49.5781C339.781 53.4688 338.695 56.5938 336.523 58.9531C334.352 61.2969 331.438 62.4688 327.781 62.4688C324.125 62.4688 321.203 61.2969 319.016 58.9531C316.844 56.6094 315.758 53.4219 315.758 49.3906V49.0859ZM322.531 49.5781C322.531 51.9844 322.984 53.8281 323.891 55.1094C324.797 56.375 326.094 57.0078 327.781 57.0078C329.422 57.0078 330.703 56.3828 331.625 55.1328C332.547 53.8672 333.008 51.8516 333.008 49.0859C333.008 46.7266 332.547 44.8984 331.625 43.6016C330.703 42.3047 329.406 41.6562 327.734 41.6562C326.078 41.6562 324.797 42.3047 323.891 43.6016C322.984 44.8828 322.531 46.875 322.531 49.5781ZM342.898 49.1328C342.898 45.1797 343.781 42.0312 345.547 39.6875C347.328 37.3438 349.758 36.1719 352.836 36.1719C355.305 36.1719 357.344 37.0938 358.953 38.9375V26H365.75V62H359.633L359.305 59.3047C357.617 61.4141 355.445 62.4688 352.789 62.4688C349.805 62.4688 347.406 61.2969 345.594 58.9531C343.797 56.5938 342.898 53.3203 342.898 49.1328ZM349.672 49.625C349.672 52 350.086 53.8203 350.914 55.0859C351.742 56.3516 352.945 56.9844 354.523 56.9844C356.617 56.9844 358.094 56.1016 358.953 54.3359V44.3281C358.109 42.5625 356.648 41.6797 354.57 41.6797C351.305 41.6797 349.672 44.3281 349.672 49.625ZM384.734 54.9922C384.734 54.1641 384.32 53.5156 383.492 53.0469C382.68 52.5625 381.367 52.1328 379.555 51.7578C373.523 50.4922 370.508 47.9297 370.508 44.0703C370.508 41.8203 371.438 39.9453 373.297 38.4453C375.172 36.9297 377.617 36.1719 380.633 36.1719C383.852 36.1719 386.422 36.9297 388.344 38.4453C390.281 39.9609 391.25 41.9297 391.25 44.3516H384.477C384.477 43.3828 384.164 42.5859 383.539 41.9609C382.914 41.3203 381.938 41 380.609 41C379.469 41 378.586 41.2578 377.961 41.7734C377.336 42.2891 377.023 42.9453 377.023 43.7422C377.023 44.4922 377.375 45.1016 378.078 45.5703C378.797 46.0234 380 46.4219 381.688 46.7656C383.375 47.0938 384.797 47.4688 385.953 47.8906C389.531 49.2031 391.32 51.4766 391.32 54.7109C391.32 57.0234 390.328 58.8984 388.344 60.3359C386.359 61.7578 383.797 62.4688 380.656 62.4688C378.531 62.4688 376.641 62.0938 374.984 61.3438C373.344 60.5781 372.055 59.5391 371.117 58.2266C370.18 56.8984 369.711 55.4688 369.711 53.9375H376.133C376.195 55.1406 376.641 56.0625 377.469 56.7031C378.297 57.3438 379.406 57.6641 380.797 57.6641C382.094 57.6641 383.07 57.4219 383.727 56.9375C384.398 56.4375 384.734 55.7891 384.734 54.9922ZM430.766 62H407.375V57.3594L418.414 45.5938C419.93 43.9375 421.047 42.4922 421.766 41.2578C422.5 40.0234 422.867 38.8516 422.867 37.7422C422.867 36.2266 422.484 35.0391 421.719 34.1797C420.953 33.3047 419.859 32.8672 418.438 32.8672C416.906 32.8672 415.695 33.3984 414.805 34.4609C413.93 35.5078 413.492 36.8906 413.492 38.6094H406.695C406.695 36.5312 407.188 34.6328 408.172 32.9141C409.172 31.1953 410.578 29.8516 412.391 28.8828C414.203 27.8984 416.258 27.4062 418.555 27.4062C422.07 27.4062 424.797 28.25 426.734 29.9375C428.688 31.625 429.664 34.0078 429.664 37.0859C429.664 38.7734 429.227 40.4922 428.352 42.2422C427.477 43.9922 425.977 46.0312 423.852 48.3594L416.094 56.5391H430.766V62Z" fill="#D90000"/>
<defs>
<filter id="filter0_d" x="9" y="9" width="110" height="110" filterUnits="userSpaceOnUse" color-interpolation-filters="sRGB">
<feFlood flood-opacity="0" result="BackgroundImageFix"/>
<feColorMatrix in="SourceAlpha" type="matrix" values="0 0 0 0 0 0 0 0 0 0 0 0 0 0 0 0 0 0 127 0" result="hardAlpha"/>
<feMorphology radius="1" operator="dilate" in="SourceAlpha" result="effect1_dropShadow"/>
<feOffset/>
<feGaussianBlur stdDeviation="2"/>
<feColorMatrix type="matrix" values="0 0 0 0 0 0 0 0 0 0 0 0 0 0 0 0 0 0 0.25 0"/>
<feBlend mode="normal" in2="BackgroundImageFix" result="effect1_dropShadow"/>
<feBlend mode="normal" in="SourceGraphic" in2="effect1_dropShadow" result="shape"/>
</filter>
</defs>
</svg>
