<svg width="500" height="64" viewBox="0 0 500 64" fill="none" xmlns="http://www.w3.org/2000/svg">
<rect width="500" height="64" fill="white"/>
<path d="M86.9785 37.4082C86.9785 36.2832 86.5801 35.416 85.7832 34.8066C84.998 34.1973 83.5742 33.582 81.5117 32.9609C79.4492 32.3398 77.8086 31.6484 76.5898 30.8867C74.2578 29.4219 73.0918 27.5117 73.0918 25.1562C73.0918 23.0938 73.9297 21.3945 75.6055 20.0586C77.293 18.7227 79.4785 18.0547 82.1621 18.0547C83.9434 18.0547 85.5312 18.3828 86.9258 19.0391C88.3203 19.6953 89.416 20.6328 90.2129 21.8516C91.0098 23.0586 91.4082 24.4004 91.4082 25.877H86.9785C86.9785 24.541 86.5566 23.498 85.7129 22.748C84.8809 21.9863 83.6855 21.6055 82.127 21.6055C80.6738 21.6055 79.543 21.916 78.7344 22.5371C77.9375 23.1582 77.5391 24.0254 77.5391 25.1387C77.5391 26.0762 77.9727 26.8613 78.8398 27.4941C79.707 28.1152 81.1367 28.7246 83.1289 29.3223C85.1211 29.9082 86.7207 30.582 87.9277 31.3438C89.1348 32.0938 90.0195 32.9609 90.582 33.9453C91.1445 34.918 91.4258 36.0605 91.4258 37.373C91.4258 39.5059 90.6055 41.2051 88.9648 42.4707C87.3359 43.7246 85.1211 44.3516 82.3203 44.3516C80.4688 44.3516 78.7637 44.0117 77.2051 43.332C75.6582 42.6406 74.4512 41.6914 73.584 40.4844C72.7285 39.2773 72.3008 37.8711 72.3008 36.2656H76.748C76.748 37.7188 77.2285 38.8438 78.1895 39.6406C79.1504 40.4375 80.5273 40.8359 82.3203 40.8359C83.8672 40.8359 85.0273 40.5254 85.8008 39.9043C86.5859 39.2715 86.9785 38.4395 86.9785 37.4082ZM102.729 40.9414C103.795 40.9414 104.68 40.6309 105.383 40.0098C106.086 39.3887 106.461 38.6211 106.508 37.707H110.533C110.486 38.8906 110.117 39.998 109.426 41.0293C108.734 42.0488 107.797 42.8574 106.613 43.4551C105.43 44.0527 104.152 44.3516 102.781 44.3516C100.121 44.3516 98.0117 43.4902 96.4531 41.7676C94.8945 40.0449 94.1152 37.666 94.1152 34.6309V34.1914C94.1152 31.2969 94.8887 28.9824 96.4355 27.248C97.9824 25.502 100.092 24.6289 102.764 24.6289C105.025 24.6289 106.865 25.291 108.283 26.6152C109.713 27.9277 110.463 29.6562 110.533 31.8008H106.508C106.461 30.7109 106.086 29.8145 105.383 29.1113C104.691 28.4082 103.807 28.0566 102.729 28.0566C101.346 28.0566 100.279 28.5605 99.5293 29.5684C98.7793 30.5645 98.3984 32.082 98.3867 34.1211V34.8066C98.3867 36.8691 98.7559 38.4102 99.4941 39.4297C100.244 40.4375 101.322 40.9414 102.729 40.9414ZM123.717 28.8828C123.154 28.7891 122.574 28.7422 121.977 28.7422C120.02 28.7422 118.701 29.4922 118.021 30.9922V44H113.75V24.9805H117.828L117.934 27.1074C118.965 25.4551 120.395 24.6289 122.223 24.6289C122.832 24.6289 123.336 24.7109 123.734 24.875L123.717 28.8828ZM134.439 44.3516C131.732 44.3516 129.535 43.502 127.848 41.8027C126.172 40.0918 125.334 37.8184 125.334 34.9824V34.4551C125.334 32.5566 125.697 30.8633 126.424 29.375C127.162 27.875 128.193 26.709 129.518 25.877C130.842 25.0449 132.318 24.6289 133.947 24.6289C136.537 24.6289 138.535 25.4551 139.941 27.1074C141.359 28.7598 142.068 31.0977 142.068 34.1211V35.8438H129.641C129.77 37.4141 130.291 38.6562 131.205 39.5703C132.131 40.4844 133.291 40.9414 134.686 40.9414C136.643 40.9414 138.236 40.1504 139.467 38.5684L141.77 40.7656C141.008 41.9023 139.988 42.7871 138.711 43.4199C137.445 44.041 136.021 44.3516 134.439 44.3516ZM133.93 28.0566C132.758 28.0566 131.809 28.4668 131.082 29.2871C130.367 30.1074 129.91 31.25 129.711 32.7148H137.85V32.3984C137.756 30.9688 137.375 29.8906 136.707 29.1641C136.039 28.4258 135.113 28.0566 133.93 28.0566ZM153.775 44.3516C151.068 44.3516 148.871 43.502 147.184 41.8027C145.508 40.0918 144.67 37.8184 144.67 34.9824V34.4551C144.67 32.5566 145.033 30.8633 145.76 29.375C146.498 27.875 147.529 26.709 148.854 25.877C150.178 25.0449 151.654 24.6289 153.283 24.6289C155.873 24.6289 157.871 25.4551 159.277 27.1074C160.695 28.7598 161.404 31.0977 161.404 34.1211V35.8438H148.977C149.105 37.4141 149.627 38.6562 150.541 39.5703C151.467 40.4844 152.627 40.9414 154.021 40.9414C155.979 40.9414 157.572 40.1504 158.803 38.5684L161.105 40.7656C160.344 41.9023 159.324 42.7871 158.047 43.4199C156.781 44.041 155.357 44.3516 153.775 44.3516ZM153.266 28.0566C152.094 28.0566 151.145 28.4668 150.418 29.2871C149.703 30.1074 149.246 31.25 149.047 32.7148H157.186V32.3984C157.092 30.9688 156.711 29.8906 156.043 29.1641C155.375 28.4258 154.449 28.0566 153.266 28.0566ZM168.699 24.9805L168.822 27.1777C170.229 25.4785 172.074 24.6289 174.359 24.6289C178.32 24.6289 180.336 26.8965 180.406 31.4316V44H176.135V31.6777C176.135 30.4707 175.871 29.5801 175.344 29.0059C174.828 28.4199 173.979 28.127 172.795 28.127C171.072 28.127 169.789 28.9062 168.945 30.4648V44H164.674V24.9805H168.699ZM195.436 38.832C195.436 38.0703 195.119 37.4902 194.486 37.0918C193.865 36.6934 192.828 36.3418 191.375 36.0371C189.922 35.7324 188.709 35.3457 187.736 34.877C185.604 33.8457 184.537 32.3516 184.537 30.3945C184.537 28.7539 185.229 27.3828 186.611 26.2812C187.994 25.1797 189.752 24.6289 191.885 24.6289C194.158 24.6289 195.992 25.1914 197.387 26.3164C198.793 27.4414 199.496 28.9004 199.496 30.6934H195.225C195.225 29.873 194.92 29.1934 194.311 28.6543C193.701 28.1035 192.893 27.8281 191.885 27.8281C190.947 27.8281 190.18 28.0449 189.582 28.4785C188.996 28.9121 188.703 29.4922 188.703 30.2188C188.703 30.875 188.979 31.3848 189.529 31.748C190.08 32.1113 191.193 32.4805 192.869 32.8555C194.545 33.2188 195.857 33.6582 196.807 34.1738C197.768 34.6777 198.477 35.2871 198.934 36.002C199.402 36.7168 199.637 37.584 199.637 38.6035C199.637 40.3145 198.928 41.7031 197.51 42.7695C196.092 43.8242 194.234 44.3516 191.938 44.3516C190.379 44.3516 188.99 44.0703 187.771 43.5078C186.553 42.9453 185.604 42.1719 184.924 41.1875C184.244 40.2031 183.904 39.1426 183.904 38.0059H188.053C188.111 39.0137 188.492 39.793 189.195 40.3438C189.898 40.8828 190.83 41.1523 191.99 41.1523C193.115 41.1523 193.971 40.9414 194.557 40.5195C195.143 40.0859 195.436 39.5234 195.436 38.832ZM207.582 27.0547C208.977 25.4375 210.74 24.6289 212.873 24.6289C216.928 24.6289 218.984 26.9434 219.043 31.5723V44H214.771V31.7305C214.771 30.418 214.484 29.4922 213.91 28.9531C213.348 28.4023 212.516 28.127 211.414 28.127C209.703 28.127 208.426 28.8887 207.582 30.4121V44H203.311V17H207.582V27.0547ZM222.576 34.3145C222.576 32.4512 222.945 30.7754 223.684 29.2871C224.422 27.7871 225.459 26.6387 226.795 25.8418C228.131 25.0332 229.666 24.6289 231.4 24.6289C233.967 24.6289 236.047 25.4551 237.641 27.1074C239.246 28.7598 240.113 30.9512 240.242 33.6816L240.26 34.6836C240.26 36.5586 239.896 38.2344 239.17 39.7109C238.455 41.1875 237.424 42.3301 236.076 43.1387C234.74 43.9473 233.193 44.3516 231.436 44.3516C228.752 44.3516 226.602 43.4609 224.984 41.6797C223.379 39.8867 222.576 37.502 222.576 34.5254V34.3145ZM226.848 34.6836C226.848 36.6406 227.252 38.1758 228.061 39.2891C228.869 40.3906 229.994 40.9414 231.436 40.9414C232.877 40.9414 233.996 40.3789 234.793 39.2539C235.602 38.1289 236.006 36.4824 236.006 34.3145C236.006 32.3926 235.59 30.8691 234.758 29.7441C233.938 28.6191 232.818 28.0566 231.4 28.0566C230.006 28.0566 228.898 28.6133 228.078 29.7266C227.258 30.8281 226.848 32.4805 226.848 34.6836ZM249.225 20.3574V24.9805H252.582V28.1445H249.225V38.7617C249.225 39.4883 249.365 40.0156 249.646 40.3438C249.939 40.6602 250.455 40.8184 251.193 40.8184C251.686 40.8184 252.184 40.7598 252.688 40.6426V43.9473C251.715 44.2168 250.777 44.3516 249.875 44.3516C246.594 44.3516 244.953 42.541 244.953 38.9199V28.1445H241.824V24.9805H244.953V20.3574H249.225ZM266.521 38.832C266.521 38.0703 266.205 37.4902 265.572 37.0918C264.951 36.6934 263.914 36.3418 262.461 36.0371C261.008 35.7324 259.795 35.3457 258.822 34.877C256.689 33.8457 255.623 32.3516 255.623 30.3945C255.623 28.7539 256.314 27.3828 257.697 26.2812C259.08 25.1797 260.838 24.6289 262.971 24.6289C265.244 24.6289 267.078 25.1914 268.473 26.3164C269.879 27.4414 270.582 28.9004 270.582 30.6934H266.311C266.311 29.873 266.006 29.1934 265.396 28.6543C264.787 28.1035 263.979 27.8281 262.971 27.8281C262.033 27.8281 261.266 28.0449 260.668 28.4785C260.082 28.9121 259.789 29.4922 259.789 30.2188C259.789 30.875 260.064 31.3848 260.615 31.748C261.166 32.1113 262.279 32.4805 263.955 32.8555C265.631 33.2188 266.943 33.6582 267.893 34.1738C268.854 34.6777 269.562 35.2871 270.02 36.002C270.488 36.7168 270.723 37.584 270.723 38.6035C270.723 40.3145 270.014 41.7031 268.596 42.7695C267.178 43.8242 265.32 44.3516 263.023 44.3516C261.465 44.3516 260.076 44.0703 258.857 43.5078C257.639 42.9453 256.689 42.1719 256.01 41.1875C255.33 40.2031 254.99 39.1426 254.99 38.0059H259.139C259.197 39.0137 259.578 39.793 260.281 40.3438C260.984 40.8828 261.916 41.1523 263.076 41.1523C264.201 41.1523 265.057 40.9414 265.643 40.5195C266.229 40.0859 266.521 39.5234 266.521 38.832Z" fill="#FF0000"/>
<g clip-path="url(#clip0)">
<g filter="url(#filter0_d)">
<rect x="7" y="7" width="50" height="50" fill="#B9B9B9"/>
</g>
<rect x="11" y="11" width="7" height="6" fill="#DC2727"/>
<rect x="11" y="11" width="7" height="6" fill="#DC2727"/>
<rect x="21" y="34" width="5" height="6" fill="#DC2727"/>
<rect x="21" y="34" width="5" height="6" fill="#DC2727"/>
<rect x="13" y="45" width="5" height="6" fill="#DC2727"/>
<rect x="13" y="45" width="5" height="6" fill="#DC2727"/>
<rect x="20" y="19" width="5" height="6" fill="#DC2727"/>
<rect x="20" y="19" width="5" height="6" fill="#DC2727"/>
<rect x="32" y="29" width="6" height="6" fill="#DC2727"/>
<rect x="32" y="29" width="6" height="6" fill="#DC2727"/>
<rect x="40" y="45" width="6" height="6" fill="#DC2727"/>
<rect x="40" y="45" width="6" height="6" fill="#DC2727"/>
<rect x="45" y="16" width="5" height="5" fill="#DC2727"/>
<rect x="45" y="16" width="5" height="5" fill="#DC2727"/>
</g>
<defs>
<filter id="filter0_d" x="2" y="2" width="60" height="60" filterUnits="userSpaceOnUse" color-interpolation-filters="sRGB">
<feFlood flood-opacity="0" result="BackgroundImageFix"/>
<feColorMatrix in="SourceAlpha" type="matrix" values="0 0 0 0 0 0 0 0 0 0 0 0 0 0 0 0 0 0 127 0" result="hardAlpha"/>
<feMorphology radius="1" operator="dilate" in="SourceAlpha" result="effect1_dropShadow"/>
<feOffset/>
<feGaussianBlur stdDeviation="2"/>
<feColorMatrix type="matrix" values="0 0 0 0 0 0 0 0 0 0 0 0 0 0 0 0 0 0 0.25 0"/>
<feBlend mode="normal" in2="BackgroundImageFix" result="effect1_dropShadow"/>
<feBlend mode="normal" in="SourceGraphic" in2="effect1_dropShadow" result="shape"/>
</filter>
<clipPath id="clip0">
<rect width="50" height="50" fill="white" transform="translate(7 7)"/>
</clipPath>
</defs>
</svg>
